<svg xmlns="http://www.w3.org/2000/svg" viewBox="0 0 512 512">
    <path fill="#fff" d="M488.6 104.1c16.7 18.1 24.4 39.7 23.3 65.7V372.2C511.5 398.6 502.7 420.3 485.4 437.3c-17.2 17-39.1 25.9-65.5 26.7H92.02C65.57 463.2 43.81 454.2 26.74 436.8 9.682 419.4.7667 396.5.0 368.2V169.8c.7667-26 9.682-47.6 26.74-65.7C43.81 87.75 65.57 78.77 92.02 78H121.4L96.05 52.19c-5.75-5.73-8.63-13-8.63-21.79.0-8.8 2.88-16.06 8.63-21.797C101.8 2.868 109.1.0 117.9.0c8.8.0 16.1 2.868 21.9 8.603L213.1 78h88L375.6 8.603C381.7 2.868 389.2.0 398 0s16.1 2.868 21.9 8.603C425.6 14.34 428.5 21.6 428.5 30.4 428.5 39.19 425.6 46.46 419.9 52.19L394.6 78h29.3C450.3 78.77 471.9 87.75 488.6 104.1h0zm-38.8 69.7C449.4 164.2 446.1 156.4 439.1 150.3 433.9 144.2 425.1 140.9 416.4 140.5H96.05C86.46 140.9 78.6 144.2 72.47 150.3 66.33 156.4 63.07 164.2 62.69 173.8V368.2C62.69 377.4 65.95 385.2 72.47 391.7S86.85 401.5 96.05 401.5H416.4C425.6 401.5 433.4 398.2 439.7 391.7S449.4 377.4 449.8 368.2V173.8zM185.5 216.5C191.8 222.8 195.2 230.6 195.6 239.7V273C195.2 282.2 191.9 289.9 185.8 296.2 179.6 302.5 171.8 305.7 162.2 305.7 152.6 305.7 144.7 302.5 138.6 296.2S129.2 282.2 128.8 273V239.7C129.2 230.6 132.6 222.8 138.9 216.5 145.2 210.2 152.1 206.9 162.2 206.5 171.4 206.9 179.2 210.2 185.5 216.5h0zm191.5.0C383.3 222.8 386.7 230.6 387.1 239.7V273C386.7 282.2 383.4 289.9 377.3 296.2 371.2 302.5 363.3 305.7 353.7 305.7 344.1 305.7 336.3 302.5 330.1 296.2 323.1 289.9 320.7 282.2 320.4 273V239.7C320.7 230.6 324.1 222.8 330.4 216.5 336.7 210.2 344.5 206.9 353.7 206.5 362.9 206.9 370.7 210.2 377 216.5h0z"/>
</svg>